# xmcd
#
# Track frame offsets:
#	150
#	18286
#	36631
#	50666
#	65179
#	82924
#	100501
#	116444
#	132184
#	149906
#	169524
#	186361
#
# Disc length: 2686 seconds
#
# Revision: 0
# Processed by: cddbd v1.5.1PL0 Copyright (c) Steve Scherf et al.
# Submitted via: EasyCDDAExtractor 4.5.0.2
#
DISCID=ab0a7c0c
DTITLE=Claudinho and Buchecha - Vamos Dançar
DYEAR=2002
DGENRE=Pop
TTITLE0=Bonde da Zoeira
TTITLE1=Gostosa
TTITLE2=Zó-zó-zó
TTITLE3=Deusa Negra
TTITLE4=Eu Sonhei
TTITLE5=Desinibida
TTITLE6=Saliência
TTITLE7=Vamos Dançar
TTITLE8=Baixo Degrau
TTITLE9=Meu Anjo
TTITLE10=Fico Assim Sem Você
TTITLE11=Salvar o Mundo
EXTD=
EXTT0=
EXTT1=
EXTT2=
EXTT3=
EXTT4=
EXTT5=
EXTT6=
EXTT7=
EXTT8=
EXTT9=
EXTT10=
EXTT11=
PLAYORDER=
